<?xml version="1.0" encoding="UTF-8" standalone="no"?>
<!DOCTYPE svg PUBLIC "-//W3C//DTD SVG 1.1//EN" "http://www.w3.org/Graphics/SVG/1.1/DTD/svg11.dtd">
<svg width="100%" height="100%" viewBox="0 0 95 18" version="1.1" xmlns="http://www.w3.org/2000/svg" xmlns:xlink="http://www.w3.org/1999/xlink" xml:space="preserve" xmlns:serif="http://www.serif.com/" style="fill-rule:evenodd;clip-rule:evenodd;stroke-linejoin:round;stroke-miterlimit:2;">
    <g transform="matrix(1,0,0,1,7,12)">
        <g transform="matrix(18,0,0,18,85.587888,3.507056)">
        </g>
        <text x="17.602px" y="3.507px" style="font-family:'NeusaNextPro-WideRegular', 'Neusa Next Pro';font-stretch:expanded;font-size:18px;">T<tspan x="26.458px " y="3.507px ">a</tspan>vonni</text>
    </g>
    <g id="Layer-1" serif:id="Layer 1" transform="matrix(3.223738,0,0,3.223738,-354.014793,-579.978071)">
        <g id="g93" transform="matrix(0,-0.017878,-0.014489,-0,118.964732,187.772578)">
            <g id="g95">
                <g id="g101">
                    <clipPath id="_clip1">
                        <path d="M194.817,346.358L352.943,346.358L352.943,346.26L353.017,346.333C353.017,346.333 339.471,376.37 314.932,376.37L188.499,376.37C148.139,376.37 131.634,409.412 131.567,409.546C131.601,374.787 160.049,346.358 194.817,346.358ZM188.499,376.37L314.932,376.37C339.471,376.37 353.017,346.333 353.017,346.333L353.017,409.548L352.943,409.633L352.943,409.609L131.565,409.609C131.565,409.588 131.567,409.567 131.567,409.546C131.634,409.412 148.139,376.37 188.499,376.37L188.499,376.37ZM353.017,346.333L352.943,346.184L352.943,314.733C352.943,279.945 381.406,251.482 416.194,251.482L416.194,251.546C385.215,280.772 385.803,293.144 385.803,327.094L385.803,448.617C385.803,482.816 355.435,503.014 353.153,504.483C353.083,504.483 353.013,504.485 352.943,504.485L352.943,409.633L353.017,409.549L353.017,346.333ZM352.943,346.26L352.943,346.184L353.017,346.333L352.943,346.26ZM353.153,504.483C387.846,504.367 416.194,475.951 416.194,441.233L416.194,251.546C385.215,280.772 385.803,293.144 385.803,327.094L385.803,448.617C385.803,482.816 355.435,503.014 353.153,504.483"/>
                    </clipPath>
                    <g clip-path="url(#_clip1)">
                        <g id="g107">
                            <clipPath id="_clip2">
                                <rect x="62.327" y="18.6" width="487.345" height="754.8"/>
                            </clipPath>
                            <g clip-path="url(#_clip2)">
                                <g id="g113">
                                    <clipPath id="_clip3">
                                        <rect x="62.327" y="18.589" width="487.353" height="754.8"/>
                                    </clipPath>
                                    <g clip-path="url(#_clip3)">
                                        <g id="g119">
                                            <g id="g125">
                                                <rect id="path133" x="16.6" y="18.6" width="578.8" height="754.8" style="fill:url(#_Radial4);fill-rule:nonzero;"/>
                                            </g>
                                        </g>
                                    </g>
                                </g>
                            </g>
                        </g>
                    </g>
                </g>
            </g>
        </g>
        <g id="g135" transform="matrix(0,-0.017878,-0.014489,-0,118.964732,187.772578)">
            <g id="g137">
                <g id="g143">
                    <clipPath id="_clip5">
                        <path d="M397.583,458.434L397.583,336.909C397.583,302.961 396.995,290.589 427.973,261.363L427.973,451.05C427.973,485.768 399.625,514.184 364.933,514.297C367.214,512.829 397.583,492.633 397.583,458.434"/>
                    </clipPath>
                    <g clip-path="url(#_clip5)">
                        <g id="g149">
                            <clipPath id="_clip6">
                                <rect x="62.327" y="18.6" width="487.345" height="754.8"/>
                            </clipPath>
                            <g clip-path="url(#_clip6)">
                                <g id="g155">
                                    <clipPath id="_clip7">
                                        <rect x="62.327" y="18.589" width="487.353" height="754.8"/>
                                    </clipPath>
                                    <g clip-path="url(#_clip7)">
                                        <g id="g161">
                                            <g id="g167">
                                                <rect id="path175" x="16.6" y="18.6" width="578.8" height="754.8" style="fill:url(#_Radial8);fill-rule:nonzero;"/>
                                            </g>
                                        </g>
                                    </g>
                                </g>
                            </g>
                        </g>
                    </g>
                </g>
            </g>
        </g>
        <g id="g219" transform="matrix(0,-0.017878,-0.014489,-0,118.964732,187.772578)">
            <g id="g221">
                <g id="g227">
                    <clipPath id="_clip9">
                        <path d="M364.797,356.15L364.723,356.001L364.723,324.548C364.723,289.762 393.185,261.299 427.973,261.299L427.973,261.363C396.995,290.589 397.583,302.961 397.583,336.909L397.583,458.434C397.583,492.633 367.214,512.829 364.933,514.297C364.863,514.299 364.793,514.301 364.723,514.301L364.723,419.448L364.797,419.365L364.797,356.15"/>
                    </clipPath>
                    <g clip-path="url(#_clip9)">
                        <g id="g233">
                            <clipPath id="_clip10">
                                <rect x="62.327" y="18.6" width="487.345" height="754.8"/>
                            </clipPath>
                            <g clip-path="url(#_clip10)">
                                <g id="g239">
                                    <clipPath id="_clip11">
                                        <rect x="62.327" y="18.589" width="487.353" height="754.8"/>
                                    </clipPath>
                                    <g clip-path="url(#_clip11)">
                                        <g id="g245">
                                            <g id="g251">
                                                <rect id="path259" x="16.6" y="18.6" width="578.8" height="754.8" style="fill:rgb(172,147,59);fill-rule:nonzero;"/>
                                            </g>
                                        </g>
                                    </g>
                                </g>
                            </g>
                        </g>
                    </g>
                </g>
            </g>
        </g>
        <g id="g261" transform="matrix(0,-0.017878,-0.014489,-0,118.964732,187.772578)">
            <g id="g263">
                <g id="g269">
                    <clipPath id="_clip12">
                        <path d="M200.279,386.187L326.711,386.187C351.25,386.187 364.797,356.15 364.797,356.15L364.797,419.365L364.722,419.448L364.722,419.425L143.345,419.425L143.345,419.363C143.413,419.229 159.919,386.187 200.279,386.187"/>
                    </clipPath>
                    <g clip-path="url(#_clip12)">
                        <g id="g275">
                            <clipPath id="_clip13">
                                <rect x="62.327" y="18.6" width="487.345" height="754.8"/>
                            </clipPath>
                            <g clip-path="url(#_clip13)">
                                <g id="g281">
                                    <clipPath id="_clip14">
                                        <rect x="62.327" y="18.589" width="487.353" height="754.8"/>
                                    </clipPath>
                                    <g clip-path="url(#_clip14)">
                                        <g id="g287">
                                            <g id="g293">
                                                <rect id="path301" x="16.6" y="18.6" width="578.8" height="754.8" style="fill:rgb(172,147,59);fill-rule:nonzero;"/>
                                            </g>
                                        </g>
                                    </g>
                                </g>
                            </g>
                        </g>
                    </g>
                </g>
            </g>
        </g>
        <g id="g303" transform="matrix(0,-0.017878,-0.014489,-0,118.964732,187.772578)">
            <g id="g305">
                <g id="g311">
                    <clipPath id="_clip15">
                        <path d="M206.596,356.174L364.723,356.174L364.723,356.076L364.797,356.15C364.797,356.15 351.25,386.187 326.711,386.187L200.279,386.187C159.919,386.187 143.413,419.229 143.345,419.363C143.379,384.603 171.829,356.174 206.596,356.174"/>
                    </clipPath>
                    <g clip-path="url(#_clip15)">
                        <g id="g317">
                            <clipPath id="_clip16">
                                <rect x="62.327" y="18.6" width="487.345" height="754.8"/>
                            </clipPath>
                            <g clip-path="url(#_clip16)">
                                <g id="g323">
                                    <clipPath id="_clip17">
                                        <rect x="62.327" y="18.589" width="487.353" height="754.8"/>
                                    </clipPath>
                                    <g clip-path="url(#_clip17)">
                                        <g id="g329">
                                            <g id="g335">
                                                <rect id="path343" x="16.6" y="18.6" width="578.8" height="754.8" style="fill:url(#_Radial18);fill-rule:nonzero;"/>
                                            </g>
                                        </g>
                                    </g>
                                </g>
                            </g>
                        </g>
                    </g>
                </g>
            </g>
        </g>
    </g>
    <defs>
        <radialGradient id="_Radial4" cx="0" cy="0" r="1" gradientUnits="userSpaceOnUse" gradientTransform="matrix(0,-134.6398,-134.6398,0,273.879,377.9841)"><stop offset="0" style="stop-color:rgb(77,77,77);stop-opacity:1"/><stop offset="1" style="stop-color:black;stop-opacity:1"/></radialGradient>
        <radialGradient id="_Radial8" cx="0" cy="0" r="1" gradientUnits="userSpaceOnUse" gradientTransform="matrix(0,-92.16186,-92.16186,0,396.4532,387.831)"><stop offset="0" style="stop-color:white;stop-opacity:1"/><stop offset="1" style="stop-color:rgb(70,80,83);stop-opacity:1"/></radialGradient>
        <radialGradient id="_Radial18" cx="0" cy="0" r="1" gradientUnits="userSpaceOnUse" gradientTransform="matrix(0,-81.42913,-81.42913,0,254.0719,387.7197)"><stop offset="0" style="stop-color:white;stop-opacity:1"/><stop offset="1" style="stop-color:rgb(70,80,83);stop-opacity:1"/></radialGradient>
    </defs>
</svg>
